<?xml version="1.0" encoding="utf-8"?>
<!-- Generator: Adobe Illustrator 27.0.0, SVG Export Plug-In . SVG Version: 6.00 Build 0)  -->
<svg version="1.1" id="Layer_1" xmlns="http://www.w3.org/2000/svg" xmlns:xlink="http://www.w3.org/1999/xlink" x="0px" y="0px"
	 viewBox="0 0 65 65.5" style="enable-background:new 0 0 65 65.5;" xml:space="preserve">
<style type="text/css">
	.st0{fill:none;}
	.st1{fill:none;stroke:#FFF59E;stroke-width:5;}
	.st2{fill:#FFF59E;}
</style>
<g id="Group_2" transform="translate(-0.349)">
	<g id="Ellipse_2" transform="translate(0.349)">
		<circle class="st0" cx="32.5" cy="33" r="31"/>
		<circle class="st1" cx="32.5" cy="33" r="28.5"/>
	</g>
	<g id="Group_1" transform="translate(15.581 20.243)">
		<path id="Path_2" class="st2" d="M31.25,4.48h-1.9v-1.7C29.35,2.35,29,2,28.57,2H18.56c-0.43,0-0.77,0.35-0.77,0.77v1.7H2.71
			c-0.67,0-1.21,0.54-1.21,1.21v0v17.2c0,0.67,0.54,1.21,1.21,1.21h0h28.54c0.67,0,1.21-0.54,1.21-1.21c0,0,0,0,0,0V5.69
			C32.46,5.02,31.92,4.48,31.25,4.48C31.25,4.48,31.25,4.48,31.25,4.48z M5.68,9.62C4.91,9.62,4.3,9,4.3,8.24
			c0-0.76,0.62-1.38,1.38-1.38c0.76,0,1.38,0.62,1.38,1.38S6.44,9.62,5.68,9.62L5.68,9.62z M23.57,21.49c-2.98,0-5.4-2.42-5.4-5.4
			s2.42-5.4,5.4-5.4c2.98,0,5.4,2.42,5.4,5.4v0C28.97,19.07,26.55,21.48,23.57,21.49L23.57,21.49z"/>
		<rect id="Rectangle_3" x="9.7" y="2.55" class="st2" width="6.35" height="1.4"/>
		<path id="Path_3" class="st2" d="M27.62,16.09c0,2.24-1.81,4.05-4.05,4.05c-2.24,0-4.05-1.81-4.05-4.05
			c0-2.24,1.81-4.05,4.05-4.05l0,0C25.8,12.04,27.62,13.85,27.62,16.09z"/>
	</g>
</g>
</svg>
